<svg width="144" height="144" viewBox="0 0 144 144" fill="none" xmlns="http://www.w3.org/2000/svg">
<path d="M125.053 18.9474H121.263V15.1579H117.474V11.3684H109.895V7.57895H102.316V3.78947H90.9474V0H53.0526V3.78947H41.6842V7.57895H34.1053V11.3684H26.5263V15.1579H22.7368V18.9474H18.9474V22.7368H125.053V18.9474ZM102.316 15.1579H41.6842V11.3684H53.0526V7.57895H90.9474V11.3684H102.316V15.1579ZM140.211 41.6842H136.421V34.1053H132.632V30.3158H11.3684V34.1053H7.57895V41.6842H3.78947V53.0526H140.211V41.6842ZM132.632 45.4737H11.3684V41.6842H15.1579V37.8947H128.842V41.6842H132.632V45.4737ZM0 60.6316V83.3684H144V60.6316H0ZM136.421 75.7895H7.57895V68.2105H136.421V75.7895ZM18.9474 125.053H22.7368V128.842H26.5263V132.632H34.1053V136.421H41.6842V140.211H53.0526V144H90.9474V140.211H102.316V136.421H109.895V132.632H117.474V128.842H121.263V125.053H125.053V121.263H18.9474V125.053ZM41.6842 128.842H102.316V132.632H90.9474V136.421H53.0526V132.632H41.6842V128.842ZM3.78947 102.316H7.57895V109.895H11.3684V113.684H132.632V109.895H136.421V102.316H140.211V90.9474H3.78947V102.316ZM11.3684 98.5263H132.632V102.316H128.842V106.105H15.1579V102.316H11.3684V98.5263Z" fill="currentColor"/>
</svg>
