<svg width="827" height="163" viewBox="0 0 827 163" fill="none" xmlns="http://www.w3.org/2000/svg">
<path d="M50.4887 162.517C40.8099 162.517 31.5645 160.928 22.7524 157.75C13.9404 154.572 6.35628 149.877 6.12554e-05 143.665L10.4012 124.813C17.1907 130.303 23.8359 134.347 30.3366 136.948C36.9817 139.548 43.3379 140.848 49.4052 140.848C55.0392 140.848 59.5174 139.837 62.84 137.814C66.307 135.792 68.0405 132.758 68.0405 128.713C68.0405 125.969 67.1015 123.874 65.2236 122.429C63.3456 120.84 60.6008 119.468 56.9894 118.312C53.5223 117.157 49.2608 115.857 44.2047 114.412C35.826 111.667 28.8197 108.995 23.1858 106.394C17.5519 103.794 13.2903 100.544 10.4012 96.6434C7.65642 92.5986 6.28405 87.4702 6.28405 81.2585C6.28405 73.7466 8.16203 67.3181 11.918 61.9731C15.8184 56.4837 21.1634 52.2221 27.953 49.1885C34.887 46.1548 42.9768 44.638 52.2222 44.638C60.3119 44.638 67.9683 45.9381 75.1913 48.5384C82.4142 50.9942 88.9871 55.0391 94.91 60.673L83.2088 79.0916C77.4304 74.6133 71.9409 71.363 66.7404 69.3406C61.5398 67.1737 56.2671 66.0902 50.9221 66.0902C47.8884 66.0902 44.9992 66.4514 42.2545 67.1737C39.6542 67.896 37.4873 69.1239 35.7538 70.8574C34.1647 72.4465 33.3702 74.7578 33.3702 77.7915C33.3702 80.5362 34.0925 82.7031 35.5371 84.2921C37.1262 85.7367 39.4375 87.0369 42.4712 88.1925C45.6493 89.3482 49.4775 90.6484 53.9557 92.093C63.0567 94.6932 70.713 97.3657 76.9248 100.11C83.281 102.855 88.0482 106.25 91.2263 110.295C94.4044 114.195 95.9934 119.613 95.9934 126.547C95.9934 137.814 91.8763 146.626 83.6421 152.983C75.408 159.339 64.3568 162.517 50.4887 162.517ZM153.23 162.517C144.129 162.517 135.895 161 128.527 157.967C121.16 154.788 114.876 150.527 109.675 145.182C104.475 139.692 100.43 133.481 97.5407 126.547C94.796 119.468 93.4236 112.028 93.4236 104.228C93.4236 93.3931 95.8072 83.4976 100.574 74.5411C105.486 65.5846 112.42 58.4339 121.377 53.0889C130.478 47.5994 141.168 44.8547 153.447 44.8547C165.87 44.8547 176.488 47.5994 185.3 53.0889C194.112 58.4339 200.829 65.5846 205.452 74.5411C210.219 83.3532 212.603 92.8875 212.603 103.144C212.603 104.878 212.531 106.683 212.386 108.561C212.242 110.295 212.097 111.739 211.953 112.895H124.194C124.771 118.674 126.433 123.73 129.177 128.063C132.067 132.397 135.678 135.72 140.012 138.031C144.49 140.198 149.257 141.281 154.313 141.281C160.092 141.281 165.509 139.909 170.565 137.164C175.766 134.275 179.305 130.519 181.183 125.896L206.102 132.831C203.357 138.609 199.385 143.737 194.184 148.215C189.128 152.694 183.133 156.233 176.199 158.833C169.265 161.289 161.609 162.517 153.23 162.517ZM123.543 94.4765H182.916C182.338 88.6982 180.677 83.7143 177.932 79.525C175.332 75.1912 171.865 71.8686 167.531 69.5573C163.198 67.1015 158.358 65.8735 153.013 65.8735C147.813 65.8735 143.046 67.1015 138.712 69.5573C134.522 71.8686 131.055 75.1912 128.311 79.525C125.71 83.7143 124.121 88.6982 123.543 94.4765ZM214.907 2.16688H243.943V123.946C243.943 129.147 244.81 132.686 246.543 134.564C248.277 136.298 250.661 137.164 253.694 137.164C256.006 137.164 258.389 136.875 260.845 136.298C263.301 135.72 265.468 134.997 267.346 134.131L271.246 156.233C267.346 158.111 262.795 159.556 257.595 160.567C252.394 161.578 247.699 162.084 243.51 162.084C234.409 162.084 227.33 159.7 222.274 154.933C217.363 150.021 214.907 143.087 214.907 134.131V2.16688ZM274.816 160.35V74.9745H259.865V52.8722H274.816V45.9381C274.816 36.5483 276.333 28.4585 279.367 21.6689C282.545 14.7349 286.951 9.38986 292.585 5.63391C298.363 1.87796 305.081 -9.39073e-06 312.737 -9.39073e-06C317.36 -9.39073e-06 321.982 0.577826 326.605 1.7335C331.372 2.88917 336.067 4.55046 340.69 6.71735L334.839 28.603C332.672 27.4473 330.144 26.5083 327.255 25.786C324.366 24.9193 321.621 24.4859 319.021 24.4859C314.109 24.4859 310.353 26.2194 307.753 29.6864C305.153 33.1534 303.853 38.2095 303.853 44.8547V52.8722H331.589V74.9745H303.853V160.35H274.816ZM384.305 162.517C375.06 162.517 366.754 161 359.386 157.967C352.019 154.788 345.735 150.455 340.534 144.965C335.334 139.331 331.289 132.975 328.4 125.896C325.655 118.818 324.282 111.378 324.282 103.577C324.282 92.8875 326.666 83.1365 331.433 74.3244C336.345 65.3679 343.279 58.2172 352.235 52.8722C361.192 47.5272 371.81 44.8547 384.089 44.8547C396.368 44.8547 406.913 47.5272 415.725 52.8722C424.537 58.2172 431.11 65.2235 435.444 73.8911L407.058 82.5586C404.602 78.3693 401.352 75.1912 397.307 73.0243C393.262 70.7129 388.784 69.5573 383.872 69.5573C378.383 69.5573 373.326 71.0019 368.704 73.8911C364.225 76.6358 360.686 80.6084 358.086 85.809C355.486 90.865 354.186 96.7879 354.186 103.577C354.186 110.223 355.486 116.145 358.086 121.346C360.831 126.402 364.442 130.447 368.92 133.481C373.399 136.37 378.383 137.814 383.872 137.814C387.339 137.814 390.589 137.237 393.623 136.081C396.801 134.925 399.618 133.336 402.074 131.314C404.53 129.291 406.335 126.98 407.491 124.38L435.877 133.047C433.277 138.681 429.449 143.737 424.393 148.215C419.481 152.694 413.631 156.233 406.841 158.833C400.196 161.289 392.684 162.517 384.305 162.517ZM438.359 2.16688H467.396V123.946C467.396 129.147 468.262 132.686 469.996 134.564C471.729 136.298 474.113 137.164 477.147 137.164C479.458 137.164 481.842 136.875 484.297 136.298C486.753 135.72 488.92 134.997 490.798 134.131L494.698 156.233C490.798 158.111 486.248 159.556 481.047 160.567C475.846 161.578 471.151 162.084 466.962 162.084C457.861 162.084 450.783 159.7 445.727 154.933C440.815 150.021 438.359 143.087 438.359 134.131V2.16688ZM544.62 162.517C535.374 162.517 527.068 161 519.701 157.967C512.333 154.788 506.049 150.455 500.849 144.965C495.793 139.476 491.892 133.192 489.147 126.113C486.403 119.035 485.03 111.595 485.03 103.794C485.03 95.8489 486.403 88.337 489.147 81.2585C491.892 74.18 495.793 67.896 500.849 62.4065C506.049 56.9171 512.333 52.6555 519.701 49.6218C527.068 46.4437 535.374 44.8547 544.62 44.8547C553.865 44.8547 562.099 46.4437 569.322 49.6218C576.69 52.6555 582.974 56.9171 588.174 62.4065C593.375 67.896 597.275 74.18 599.876 81.2585C602.62 88.337 603.993 95.8489 603.993 103.794C603.993 111.595 602.62 119.035 599.876 126.113C597.275 133.192 593.375 139.476 588.174 144.965C583.118 150.455 576.907 154.788 569.539 157.967C562.172 161 553.865 162.517 544.62 162.517ZM514.933 103.794C514.933 110.439 516.234 116.362 518.834 121.563C521.434 126.619 524.973 130.591 529.452 133.481C533.93 136.37 538.986 137.814 544.62 137.814C550.109 137.814 555.093 136.37 559.571 133.481C564.05 130.447 567.589 126.402 570.189 121.346C572.934 116.145 574.306 110.223 574.306 103.577C574.306 97.0768 572.934 91.2262 570.189 86.0257C567.589 80.8251 564.05 76.7802 559.571 73.8911C555.093 71.0019 550.109 69.5573 544.62 69.5573C538.986 69.5573 533.93 71.0741 529.452 74.1077C524.973 76.9969 521.434 81.0418 518.834 86.2423C516.234 91.2984 514.933 97.149 514.933 103.794ZM600.622 126.763C600.622 119.396 602.645 112.967 606.69 107.478C610.879 101.844 616.657 97.5102 624.025 94.4765C631.392 91.4429 639.843 89.9261 649.377 89.9261C654.145 89.9261 658.984 90.2872 663.896 91.0095C668.807 91.7318 673.069 92.8875 676.68 94.4765V88.4092C676.68 81.1863 674.513 75.6246 670.18 71.7242C665.99 67.8237 659.706 65.8735 651.328 65.8735C645.116 65.8735 639.193 66.957 633.559 69.1239C627.925 71.2908 622.002 74.4689 615.791 78.6582L606.473 59.5896C613.985 54.6779 621.641 50.9942 629.442 48.5384C637.387 46.0826 645.694 44.8547 654.361 44.8547C670.541 44.8547 683.109 48.8995 692.065 56.9893C701.166 65.079 705.717 76.6358 705.717 91.6596V127.847C705.717 130.88 706.222 133.047 707.233 134.347C708.389 135.648 710.195 136.442 712.651 136.731V160.35C710.05 160.783 707.667 161.145 705.5 161.434C703.477 161.722 701.744 161.867 700.299 161.867C694.521 161.867 690.115 160.567 687.081 157.967C684.192 155.366 682.386 152.188 681.664 148.432L681.014 142.582C676.102 148.938 669.963 153.849 662.595 157.316C655.228 160.783 647.716 162.517 640.06 162.517C632.548 162.517 625.758 161 619.691 157.967C613.768 154.788 609.073 150.527 605.606 145.182C602.284 139.692 600.622 133.553 600.622 126.763ZM671.263 132.614C672.852 130.88 674.152 129.147 675.163 127.413C676.175 125.68 676.68 124.091 676.68 122.646V111.162C673.213 109.717 669.457 108.634 665.412 107.911C661.367 107.045 657.539 106.611 653.928 106.611C646.416 106.611 640.204 108.272 635.293 111.595C630.525 114.773 628.142 119.035 628.142 124.38C628.142 127.269 628.936 130.014 630.525 132.614C632.114 135.214 634.426 137.309 637.459 138.898C640.493 140.487 644.105 141.281 648.294 141.281C652.628 141.281 656.889 140.487 661.079 138.898C665.268 137.164 668.663 135.07 671.263 132.614ZM795.257 160.35L762.103 111.378L746.718 126.547V160.35H717.682V2.16688H746.718V97.9436L792.44 47.0216H823.21L780.955 95.1266L826.243 160.35H795.257Z" fill="currentColor"/>
</svg>
