<svg width="393" height="307" viewBox="0 0 393 307" fill="none" xmlns="http://www.w3.org/2000/svg">
<path d="M104.482 202.336C32.0823 201.923 -0.317654 153.83 0.00234634 100.363C0.309013 46.8962 33.2557 -0.423803 105.656 0.00286326C178.056 0.402863 210.456 48.1095 210.136 101.59C209.816 155.043 176.882 202.763 104.482 202.336ZM105.349 53.4695C77.4957 53.2962 73.6157 80.3895 73.4957 100.803C73.389 121.216 76.9357 148.723 104.776 148.896C132.616 149.043 136.496 121.603 136.629 101.163C136.749 80.7362 133.202 53.6162 105.349 53.4695Z" fill="currentColor"/>
<path d="M286.909 202.35C214.522 201.91 182.122 153.816 182.442 100.363C182.736 46.9096 215.696 -0.423769 288.082 0.00289808C360.482 0.416231 392.882 48.1229 392.576 101.59C392.269 155.056 359.309 202.75 286.909 202.35ZM287.789 53.4562C259.949 53.2829 256.082 80.3762 255.962 100.803C255.829 121.216 259.376 148.71 287.242 148.883C315.056 149.056 318.962 121.59 319.069 101.176C319.176 80.7362 315.616 53.6029 287.789 53.4562Z" fill="currentColor"/>
<path d="M27.5757 202.35C79.7757 225.67 133.936 236.016 192.949 236.363C254.949 236.723 301.962 225.016 361.482 202.35L361.136 266.576C307.869 292.99 250.096 307.243 192.536 306.91C129.802 306.536 84.589 293.656 27.189 266.576L27.5757 202.35Z" fill="currentColor"/>
</svg>
