<svg width="167" height="191" viewBox="0 0 167 191" fill="none" xmlns="http://www.w3.org/2000/svg">
<path d="M68.5641 76.3951V69.1175C65.8638 68.7603 63.1435 68.5755 60.4197 68.5641C27.1073 68.5641 0 93.9328 0 125.115C0 144.239 10.2161 161.175 25.7948 171.41C15.3633 160.969 9.55979 147.207 9.56959 132.911C9.56959 102.175 35.9031 77.1101 68.5641 76.3951Z" fill="#00F2EA"/>
<path d="M70.1653 156.718C84.2504 156.718 95.7348 145.586 96.2589 131.707L96.3078 7.84079H119.081C118.593 5.25555 118.346 2.6308 118.341 0L87.2427 0L87.1888 123.871C86.6697 137.74 75.1754 148.872 61.0953 148.872C56.8711 148.872 52.7099 147.847 48.9692 145.885C51.3932 149.239 54.5785 151.969 58.2633 153.853C61.9481 155.736 66.0272 156.718 70.1653 156.718ZM161.61 49.8853V42.9995C153.25 43.0088 145.067 40.5912 138.054 36.0402C144.209 43.0753 152.469 47.9318 161.61 49.8853Z" fill="#00F2EA"/>
<path d="M137.128 37.7984C130.29 30.0728 126.513 20.1124 126.511 9.79486H118.2C119.287 15.5035 121.527 20.9307 124.781 25.7454C128.035 30.56 132.237 34.6611 137.128 37.7984ZM60.3611 98.267C45.9626 98.2866 34.2969 109.83 34.2822 124.077C34.2973 128.799 35.6086 133.427 38.0733 137.456C40.538 141.485 44.0615 144.759 48.2595 146.923C45.0561 142.559 43.3269 137.287 43.3229 131.873C43.3376 117.622 55.0033 106.074 69.4017 106.059C72.0953 106.059 74.6665 106.5 77.1005 107.254V75.9102C74.5497 75.5516 71.9776 75.3651 69.4017 75.3519C68.9512 75.3519 68.5055 75.3813 68.0598 75.3862V99.462C65.5686 98.6776 62.9729 98.2747 60.3611 98.267Z" fill="#FF004F"/>
<path d="M157.467 53.8718V77.7908C141.997 77.8139 126.906 73.0005 114.306 64.0241V126.55C114.306 157.781 88.6927 183.189 57.212 183.189C45.0418 183.189 33.7581 179.378 24.4873 172.919C29.8393 178.632 36.3081 183.185 43.4926 186.296C50.677 189.406 58.4238 191.007 66.2526 191C97.7382 191 123.352 165.592 123.352 134.366V71.8356C135.952 80.8102 151.043 85.6218 166.513 85.5974V54.8268C163.473 54.8258 160.441 54.5058 157.467 53.8718Z" fill="#FF004F"/>
<path d="M117.436 124.493V61.8644C130.402 70.8779 145.824 75.692 161.615 75.6556V51.7071C152.33 49.7852 143.901 44.9463 137.559 37.8963C127.412 31.4954 120.408 21.343 118.185 9.79486H94.9368L94.8878 133.284C94.3491 147.114 82.6198 158.212 68.2458 158.212C59.6557 158.202 51.6043 154.186 46.5991 147.418C37.8131 142.946 32.3035 134.116 32.2986 124.488C32.3133 110.187 44.2484 98.6049 58.9897 98.5854C61.7322 98.5854 64.367 99.0261 66.8647 99.7852V75.6262C35.2714 76.3461 9.79492 101.485 9.79492 132.309C9.79492 147.222 15.7649 160.793 25.4912 170.925C35.3678 177.646 47.0432 181.229 58.9897 181.205C91.2148 181.205 117.436 155.763 117.436 124.493Z" fill="currentColor"/>
</svg>
