<svg width="169" height="202" viewBox="0 0 169 202" fill="none" xmlns="http://www.w3.org/2000/svg">
<path d="M74.2071 1.29289C74.3946 1.10536 74.649 1 74.9142 1H95.4124C95.4707 1 95.5289 1.00509 95.5862 1.01522L112.5 4C124.396 7.05703 133.874 12.5321 140.933 20.4253C140.978 20.4749 141.017 20.529 141.05 20.5865L147.899 32.3269C147.966 32.4412 148.009 32.5675 148.026 32.6986L148.849 38.8678C148.929 39.4673 148.463 40 147.858 40H129.914C129.649 40 129.395 39.8946 129.207 39.7071L127.196 37.6959C127.068 37.5677 126.977 37.4071 126.933 37.2313L126.067 33.7687C126.023 33.5929 125.932 33.4323 125.804 33.3041L118.615 26.1147C118.539 26.0387 118.451 25.9755 118.355 25.9274L110.606 22.0532C110.536 22.0179 110.461 21.991 110.384 21.9732L97.611 19.0256C97.5372 19.0086 97.4618 19 97.3861 19H72.631C72.5441 19 72.4574 19.0114 72.3734 19.0338L57.6656 22.9558C57.556 22.9851 57.4522 23.0327 57.3586 23.0968L48 29.5C45.0413 31.8012 44.0279 36.0479 44.9599 42.2399C44.9854 42.4094 45.0558 42.5707 45.1621 42.7053L52.3797 51.8477C52.4592 51.9483 52.5572 52.0327 52.6685 52.0963L66.5 60L106.5 76L129.5 87C138.133 91.6488 145.609 97.4553 151.927 104.42C151.976 104.473 152.018 104.532 152.054 104.594L159.919 118.359C159.973 118.452 160.011 118.554 160.032 118.659L160.981 123.403C160.993 123.467 161 123.533 161 123.599V138.374C161 138.458 160.989 138.542 160.968 138.623C157.905 150.468 152.154 159.626 143.718 166.098C143.339 166.388 142.828 166.015 142.979 165.563C142.993 165.521 143.012 165.482 143.036 165.445C146.998 159.463 148.322 150.844 147.01 139.588C147.004 139.53 146.991 139.472 146.975 139.416C143.503 127.924 137.345 119.118 128.5 113C118.367 105.467 107.033 99.1333 94.5 94L47.5 73C39.87 69.0191 33.3955 63.8827 28.0766 57.5907C28.0257 57.5305 27.9822 57.4644 27.9469 57.3939L22.1056 45.7111C22.0361 45.5723 22 45.4192 22 45.2639V33.6174C22 33.5394 22.0092 33.4612 22.0275 33.3854C23.7013 26.4399 26.8588 20.9781 31.5 17C36.7667 12.2667 43.1 8.6 50.5 6L65.3734 2.03377C65.4574 2.01135 65.5441 2 65.631 2H73.0858C73.351 2 73.6054 1.89464 73.7929 1.70711L74.2071 1.29289Z" fill="currentColor"/>
<path d="M76.3734 34.0338C76.4574 34.0113 76.5441 34 76.631 34H93.3941C93.4645 34 93.5347 34.0074 93.6036 34.0222L107.211 36.9381C107.4 36.9785 107.573 37.0725 107.709 37.2088L108.794 38.2941C108.929 38.4286 109.022 38.5986 109.063 38.7843L110.951 47.2805C110.983 47.425 111.047 47.5606 111.138 47.6775L114.316 51.7636C114.436 51.9178 114.599 52.0337 114.784 52.097C131.324 57.7635 145.063 66.2311 156 77.5C160.4 82.1 163.733 87.7667 166 94.5L167.962 101.365C167.987 101.455 168 101.547 168 101.64V106.882C168 107.625 167.218 108.109 166.553 107.776L166.298 107.649C166.105 107.552 165.948 107.395 165.851 107.202L163.073 101.645C163.025 101.549 162.961 101.461 162.885 101.385L150.585 89.0852C150.529 89.0286 150.465 88.979 150.397 88.9375L122.571 72.043C122.524 72.0144 122.474 71.9897 122.423 71.9693L77.5 54L59.7951 43.9512C59.3449 43.6958 59.1641 43.139 59.3783 42.6678L61.3043 38.4306C61.4282 38.158 61.6677 37.9553 61.957 37.8781L76.3734 34.0338Z" fill="currentColor"/>
<path d="M9.04715 43.4645C9.44349 42.5194 10.8793 42.7071 11.0595 43.716C13.3183 56.3653 18.7985 65.7933 27.5 72L41.4237 81.9455C41.4745 81.9818 41.5285 82.0132 41.5851 82.0394L108.42 112.963C108.473 112.988 108.524 113.017 108.572 113.05L124.332 124.034C124.721 124.305 124.866 124.814 124.675 125.247C120.08 135.629 113.355 143.879 104.5 150C98.6092 155.236 91.7544 159.509 83.9357 162.817C83.6604 162.934 83.3464 162.919 83.0827 162.778C68.9578 155.223 56.9494 145.487 47.0575 133.569C47.0193 133.523 46.9852 133.474 46.9558 133.422L38.0725 117.629C38.0244 117.543 37.9892 117.451 37.9679 117.356L37.2704 114.217C37.1316 113.592 37.6069 113 38.2466 113H52.6802C53.1569 113 53.5673 113.336 53.6608 113.804L53.9741 115.37C53.9913 115.456 54.0198 115.54 54.0589 115.619C57.9191 123.366 63.0661 129.826 69.5 135L83.8979 144.599C84.2572 144.838 84.7297 144.82 85.0695 144.554L102.775 130.676C102.922 130.561 103.037 130.408 103.09 130.228C103.427 129.098 103.031 128.653 101.901 128.895C101.641 128.95 101.369 128.93 101.135 128.805L86.5 121L41.5916 102.039C41.5307 102.013 41.4725 101.981 41.4178 101.944L19.6842 87.1467C18.9974 86.6791 18.073 87.2044 18.1233 88.0338L18.9938 102.397C18.9979 102.465 19.0091 102.533 19.0272 102.6L25 124.5C30.7333 138.1 38.9 149.267 49.5 158C59.6503 166.964 71.1691 174.559 84.0563 180.786C84.3357 180.921 84.6628 180.918 84.9394 180.778C99.7989 173.227 112.801 163.819 123.946 152.554C123.982 152.518 124.015 152.479 124.045 152.438L133.612 139.227C134.033 138.646 134.91 138.684 135.279 139.299L135.857 140.262C135.951 140.418 136 140.596 136 140.777V153.347C136 153.448 135.984 153.55 135.954 153.647C132.681 163.977 127.197 172.095 119.5 178C109.096 187.021 97.2617 194.611 83.9963 200.771C83.6875 200.914 83.3265 200.889 83.0396 200.706L47.5821 178.052C47.5275 178.018 47.4764 177.977 47.4296 177.933L25 156.5C15.8667 145.967 9.2 132.967 5 117.5L2.01942 102.597C2.0065 102.533 2 102.467 2 102.401V93.9142C2 93.649 1.89464 93.3946 1.70711 93.2071L1.29289 92.7929C1.10536 92.6054 1 92.351 1 92.0858V72.5876C1 72.5293 1.00509 72.4711 1.01522 72.4138L3.98059 55.61C3.99349 55.5369 4.01448 55.4655 4.04318 55.397L9.04715 43.4645Z" fill="currentColor"/>
<path d="M74.2071 1.29289C74.3946 1.10536 74.649 1 74.9142 1H95.4124C95.4707 1 95.5289 1.00509 95.5862 1.01522L112.5 4C124.396 7.05703 133.874 12.5321 140.933 20.4253C140.978 20.4749 141.017 20.529 141.05 20.5865L147.899 32.3269C147.966 32.4412 148.009 32.5675 148.026 32.6986L148.849 38.8678C148.929 39.4673 148.463 40 147.858 40H129.914C129.649 40 129.395 39.8946 129.207 39.7071L127.196 37.6959C127.068 37.5677 126.977 37.4071 126.933 37.2313L126.067 33.7687C126.023 33.5929 125.932 33.4323 125.804 33.3041L118.615 26.1147C118.539 26.0387 118.451 25.9755 118.355 25.9274L110.606 22.0532C110.536 22.0179 110.461 21.991 110.384 21.9732L97.611 19.0256C97.5372 19.0086 97.4618 19 97.3861 19H72.631C72.5441 19 72.4574 19.0114 72.3734 19.0338L57.6656 22.9558C57.556 22.9851 57.4522 23.0327 57.3586 23.0968L48 29.5C45.0413 31.8012 44.0279 36.0479 44.9599 42.2399C44.9854 42.4094 45.0558 42.5707 45.1621 42.7053L52.3797 51.8477C52.4592 51.9483 52.5572 52.0327 52.6685 52.0963L66.5 60L106.5 76L129.5 87C138.133 91.6488 145.609 97.4553 151.927 104.42C151.976 104.473 152.018 104.532 152.054 104.594L159.919 118.359C159.973 118.452 160.011 118.554 160.032 118.659L160.981 123.403C160.993 123.467 161 123.533 161 123.599V138.374C161 138.458 160.989 138.542 160.968 138.623C157.905 150.468 152.154 159.626 143.718 166.098C143.339 166.388 142.828 166.015 142.979 165.563C142.993 165.521 143.012 165.482 143.036 165.445C146.998 159.463 148.322 150.844 147.01 139.588C147.004 139.53 146.991 139.472 146.975 139.416C143.503 127.924 137.345 119.118 128.5 113C118.367 105.467 107.033 99.1333 94.5 94L47.5 73C39.87 69.0191 33.3955 63.8827 28.0766 57.5907C28.0257 57.5305 27.9822 57.4644 27.9469 57.3939L22.1056 45.7111C22.0361 45.5723 22 45.4192 22 45.2639V33.6174C22 33.5394 22.0092 33.4612 22.0275 33.3854C23.7013 26.4399 26.8588 20.9781 31.5 17C36.7667 12.2667 43.1 8.6 50.5 6L65.3734 2.03377C65.4574 2.01135 65.5441 2 65.631 2H73.0858C73.351 2 73.6054 1.89464 73.7929 1.70711L74.2071 1.29289Z" stroke="currentColor" stroke-width="2"/>
<path d="M76.3734 34.0338C76.4574 34.0113 76.5441 34 76.631 34H93.3941C93.4645 34 93.5347 34.0074 93.6036 34.0222L107.211 36.9381C107.4 36.9785 107.573 37.0725 107.709 37.2088L108.794 38.2941C108.929 38.4286 109.022 38.5986 109.063 38.7843L110.951 47.2805C110.983 47.425 111.047 47.5606 111.138 47.6775L114.316 51.7636C114.436 51.9178 114.599 52.0337 114.784 52.097C131.324 57.7635 145.063 66.2311 156 77.5C160.4 82.1 163.733 87.7667 166 94.5L167.962 101.365C167.987 101.455 168 101.547 168 101.64V106.882C168 107.625 167.218 108.109 166.553 107.776L166.298 107.649C166.105 107.552 165.948 107.395 165.851 107.202L163.073 101.645C163.025 101.549 162.961 101.461 162.885 101.385L150.585 89.0852C150.529 89.0286 150.465 88.979 150.397 88.9375L122.571 72.043C122.524 72.0144 122.474 71.9897 122.423 71.9693L77.5 54L59.7951 43.9512C59.3449 43.6958 59.1641 43.139 59.3783 42.6678L61.3043 38.4306C61.4282 38.158 61.6677 37.9553 61.957 37.8781L76.3734 34.0338Z" stroke="currentColor" stroke-width="2"/>
<path d="M9.04715 43.4645C9.44349 42.5194 10.8793 42.7071 11.0595 43.716C13.3183 56.3653 18.7985 65.7933 27.5 72L41.4237 81.9455C41.4745 81.9818 41.5285 82.0132 41.5851 82.0394L108.42 112.963C108.473 112.988 108.524 113.017 108.572 113.05L124.332 124.034C124.721 124.305 124.866 124.814 124.675 125.247C120.08 135.629 113.355 143.879 104.5 150C98.6092 155.236 91.7544 159.509 83.9357 162.817C83.6604 162.934 83.3464 162.919 83.0827 162.778C68.9578 155.223 56.9494 145.487 47.0575 133.569C47.0193 133.523 46.9852 133.474 46.9558 133.422L38.0725 117.629C38.0244 117.543 37.9892 117.451 37.9679 117.356L37.2704 114.217C37.1316 113.592 37.6069 113 38.2466 113H52.6802C53.1569 113 53.5673 113.336 53.6608 113.804L53.9741 115.37C53.9913 115.456 54.0198 115.54 54.0589 115.619C57.9191 123.366 63.0661 129.826 69.5 135L83.8979 144.599C84.2572 144.838 84.7297 144.82 85.0695 144.554L102.775 130.676C102.922 130.561 103.037 130.408 103.09 130.228C103.427 129.098 103.031 128.653 101.901 128.895C101.641 128.95 101.369 128.93 101.135 128.805L86.5 121L41.5916 102.039C41.5307 102.013 41.4725 101.981 41.4178 101.944L19.6842 87.1467C18.9974 86.6791 18.073 87.2044 18.1233 88.0338L18.9938 102.397C18.9979 102.465 19.0091 102.533 19.0272 102.6L25 124.5C30.7333 138.1 38.9 149.267 49.5 158C59.6503 166.964 71.1691 174.559 84.0563 180.786C84.3357 180.921 84.6628 180.918 84.9394 180.778C99.7989 173.227 112.801 163.819 123.946 152.554C123.982 152.518 124.015 152.479 124.045 152.438L133.612 139.227C134.033 138.646 134.91 138.684 135.279 139.299L135.857 140.262C135.951 140.418 136 140.596 136 140.777V153.347C136 153.448 135.984 153.55 135.954 153.647C132.681 163.977 127.197 172.095 119.5 178C109.096 187.021 97.2617 194.611 83.9963 200.771C83.6875 200.914 83.3265 200.889 83.0396 200.706L47.5821 178.052C47.5275 178.018 47.4764 177.977 47.4296 177.933L25 156.5C15.8667 145.967 9.2 132.967 5 117.5L2.01942 102.597C2.0065 102.533 2 102.467 2 102.401V93.9142C2 93.649 1.89464 93.3946 1.70711 93.2071L1.29289 92.7929C1.10536 92.6054 1 92.351 1 92.0858V72.5876C1 72.5293 1.00509 72.4711 1.01522 72.4138L3.98059 55.61C3.99349 55.5369 4.01448 55.4655 4.04318 55.397L9.04715 43.4645Z" stroke="currentColor" stroke-width="2"/>
</svg>
