<svg width="654" height="143" viewBox="0 0 654 143" fill="none" xmlns="http://www.w3.org/2000/svg">
<path d="M46.3007 142.495C33.7942 142.495 23.4164 139.701 15.1674 134.113C6.91842 128.525 1.86259 120.076 -9.00285e-05 108.767L19.1589 104.177C20.2232 109.632 22.0194 113.956 24.5473 117.149C27.0752 120.342 30.2019 122.604 33.9272 123.934C37.7856 125.265 41.9101 125.93 46.3007 125.93C52.8201 125.93 57.8094 124.666 61.2686 122.138C64.8609 119.61 66.6571 116.351 66.6571 112.359C66.6571 108.368 64.994 105.441 61.6678 103.578C58.3416 101.715 53.4188 100.185 46.8994 98.9879L40.114 97.7905C33.4615 96.593 27.4079 94.8634 21.9529 92.6016C16.4979 90.3398 12.1738 87.2131 8.98067 83.2217C5.78751 79.2303 4.19093 74.1079 4.19093 67.8546C4.19093 58.5413 7.65018 51.3566 14.5687 46.3008C21.4872 41.1119 30.6675 38.5175 42.1097 38.5175C53.1527 38.5175 62.2 41.0454 69.2515 46.1012C76.4361 51.024 81.0928 57.743 83.2216 66.258L64.0626 71.6465C62.8652 65.6593 60.3373 61.4683 56.4789 59.0734C52.6205 56.5455 47.8308 55.2816 42.1097 55.2816C36.5217 55.2816 32.1311 56.346 28.9379 58.4747C25.7447 60.4704 24.1482 63.331 24.1482 67.0563C24.1482 71.0478 25.6782 73.9748 28.7383 75.8375C31.9315 77.7002 36.189 79.0972 41.511 80.0285L48.496 81.226C55.5476 82.4234 62.0004 84.0865 67.8545 86.2153C73.7086 88.3441 78.2988 91.4042 81.625 95.3956C85.0843 99.3871 86.8139 104.709 86.8139 111.361C86.8139 121.207 83.1551 128.857 75.8374 134.312C68.5198 139.767 58.6742 142.495 46.3007 142.495ZM129.999 142.495C120.021 142.495 111.306 140.432 103.855 136.308C96.4048 132.05 90.5507 126.13 86.2931 118.546C82.1686 110.829 80.1064 101.915 80.1064 91.8033V89.4084C80.1064 79.1637 82.1686 70.2495 86.2931 62.6657C90.4176 54.9489 96.1387 49.0283 103.456 44.9038C110.907 40.6463 119.489 38.5175 129.201 38.5175C138.648 38.5175 146.897 40.6463 153.948 44.9038C161.133 49.0283 166.721 54.8159 170.712 62.2666C174.704 69.7173 176.699 78.432 176.699 88.4106V96.1939H101.061C101.328 104.842 104.188 111.761 109.643 116.949C115.231 122.005 122.15 124.533 130.399 124.533C138.115 124.533 143.903 122.804 147.761 119.344C151.753 115.885 154.813 111.894 156.942 107.37L173.905 116.151C172.043 119.876 169.315 123.801 165.723 127.926C162.264 132.05 157.674 135.51 151.952 138.304C146.231 141.098 138.914 142.495 129.999 142.495ZM101.261 80.4277H155.744C155.212 72.977 152.551 67.1894 147.761 63.0649C142.972 58.8073 136.718 56.6786 129.002 56.6786C121.285 56.6786 114.965 58.8073 110.042 63.0649C105.253 67.1894 102.325 72.977 101.261 80.4277ZM175.499 139.701V1.33718e-05H196.055V139.701H175.499ZM218.379 139.701V58.6743H190.838V41.3115H218.379V19.7577C218.379 13.7705 220.175 8.98077 223.767 5.38847C227.36 1.79617 232.149 1.33718e-05 238.137 1.33718e-05H263.482V17.3628H244.722C240.864 17.3628 238.935 19.3585 238.935 23.35V41.3115H267.274V58.6743H238.935V139.701H218.379ZM303.985 142.495C294.538 142.495 285.956 140.499 278.24 136.508C270.656 132.516 264.602 126.728 260.079 119.145C255.688 111.561 253.493 102.447 253.493 91.8033V89.2089C253.493 78.565 255.688 69.5177 260.079 62.067C264.602 54.4833 270.656 48.6957 278.24 44.7042C285.956 40.5797 294.538 38.5175 303.985 38.5175C313.431 38.5175 321.48 40.2471 328.133 43.7064C334.785 47.1656 340.107 51.7558 344.099 57.4769C348.223 63.1979 350.884 69.5177 352.081 76.4362L332.124 80.6273C331.459 76.2367 330.062 72.2452 327.933 68.6529C325.804 65.0606 322.811 62.2001 318.952 60.0713C315.094 57.9425 310.238 56.8781 304.384 56.8781C298.663 56.8781 293.474 58.2086 288.817 60.8696C284.293 63.3975 280.701 67.1229 278.04 72.0456C275.379 76.8354 274.049 82.6895 274.049 89.608V91.4042C274.049 98.3227 275.379 104.243 278.04 109.166C280.701 114.089 284.293 117.814 288.817 120.342C293.474 122.87 298.663 124.134 304.384 124.134C313.032 124.134 319.618 121.939 324.141 117.548C328.665 113.025 331.525 107.303 332.723 100.385L352.68 104.975C351.084 111.761 348.223 118.014 344.099 123.735C340.107 129.456 334.785 134.046 328.133 137.505C321.48 140.832 313.431 142.495 303.985 142.495ZM350.444 139.701V1.33718e-05H371V139.701H350.444ZM421.664 142.495C411.818 142.495 403.037 140.499 395.32 136.508C387.736 132.383 381.749 126.529 377.359 118.945C372.968 111.361 370.773 102.381 370.773 92.0029V89.0093C370.773 78.6315 372.968 69.7173 377.359 62.2666C381.749 54.6828 387.736 48.8287 395.32 44.7042C403.037 40.5797 411.818 38.5175 421.664 38.5175C431.509 38.5175 440.29 40.5797 448.007 44.7042C455.724 48.8287 461.778 54.6828 466.168 62.2666C470.559 69.7173 472.754 78.6315 472.754 89.0093V92.0029C472.754 102.381 470.559 111.361 466.168 118.945C461.778 126.529 455.724 132.383 448.007 136.508C440.29 140.499 431.509 142.495 421.664 142.495ZM421.664 124.134C430.711 124.134 438.029 121.274 443.617 115.552C449.338 109.698 452.198 101.649 452.198 91.4042V89.608C452.198 79.3633 449.404 71.3804 443.816 65.6593C438.228 59.8052 430.844 56.8781 421.664 56.8781C412.749 56.8781 405.432 59.8052 399.711 65.6593C394.123 71.3804 391.329 79.3633 391.329 89.608V91.4042C391.329 101.649 394.123 109.698 399.711 115.552C405.432 121.274 412.749 124.134 421.664 124.134ZM502.936 142.495C495.885 142.495 489.565 141.297 483.977 138.902C478.522 136.508 474.131 132.982 470.805 128.325C467.612 123.668 466.015 118.014 466.015 111.361C466.015 104.576 467.612 98.9879 470.805 94.5973C474.131 90.0737 478.588 86.681 484.177 84.4191C489.898 82.1573 496.35 81.0264 503.535 81.0264H533.471V74.6401C533.471 68.919 531.741 64.3288 528.282 60.8696C524.823 57.4103 519.501 55.6807 512.316 55.6807C505.265 55.6807 499.876 57.3438 496.151 60.67C492.426 63.9962 489.964 68.3203 488.767 73.6422L469.608 67.4555C471.204 62.1336 473.732 57.3438 477.191 53.0863C480.784 48.6957 485.507 45.1699 491.361 42.5089C497.215 39.848 504.267 38.5175 512.516 38.5175C525.288 38.5175 535.334 41.7772 542.651 48.2965C549.969 54.8159 553.628 64.0628 553.628 76.0371V116.55C553.628 120.542 555.49 122.537 559.216 122.537H567.598V139.701H552.231C547.574 139.701 543.782 138.503 540.855 136.108C537.928 133.714 536.464 130.454 536.464 126.329V125.731H533.471C532.407 127.726 530.81 130.055 528.681 132.716C526.552 135.377 523.426 137.705 519.301 139.701C515.177 141.563 509.722 142.495 502.936 142.495ZM505.93 125.531C514.179 125.531 520.831 123.203 525.887 118.546C530.943 113.756 533.471 107.237 533.471 98.9879V96.9922H504.732C499.278 96.9922 494.887 98.1896 491.561 100.584C488.234 102.846 486.571 106.239 486.571 110.763C486.571 115.286 488.301 118.879 491.76 121.54C495.22 124.201 499.943 125.531 505.93 125.531ZM561.64 139.701V1.33718e-05H582.196V79.6294H585.389L624.106 41.3115H651.448L601.754 89.0093L653.044 139.701H625.903L585.389 98.7883H582.196V139.701H561.64Z" fill="currentColor"/>
</svg>
